<svg xmlns="http://www.w3.org/2000/svg" xmlns:xlink="http://www.w3.org/1999/xlink" version="1.1" x="0px" y="0px"
	 viewBox="0 0 100 125" style="enable-background:new 0 0 100 100;" xml:space="preserve"><path fill="white" d="M44.6,4.2C23,4.2,5.4,21.8,5.4,43.4C5.4,65,23,82.6,44.6,82.6c7,0,14-1.9,20.1-5.6l1.5-0.9l18,18  c1.2,1.2,2.8,1.8,4.4,1.8c1.7,0,3.3-0.7,4.4-1.8c1.2-1.2,1.8-2.8,1.8-4.4s-0.7-3.3-1.8-4.4L75.5,67.6l1.6-2.3  c4.4-6.5,6.7-14.1,6.7-21.9C83.8,21.8,66.3,4.2,44.6,4.2z M44.6,72c-15.8,0-28.6-12.8-28.6-28.6c0-15.8,12.8-28.6,28.6-28.6  c15.8,0,28.6,12.8,28.6,28.6C73.2,59.2,60.4,72,44.6,72z"/>
	<polygon fill = "white"
			points="57.5,35.9 52.4,30.8 44.5,38.7 36.6,30.8 31.5,35.9 39.4,43.8 31.5,51.7 36.6,56.8 44.5,48.9 52.4,56.8 57.5,51.7   49.6,43.8 "/>
</svg>