<svg xmlns="http://www.w3.org/2000/svg" xmlns:xlink="http://www.w3.org/1999/xlink" version="1.1" x="0px" y="0px"
	 viewBox="0 0 100 125" style="enable-background:new 0 0 100 100;" xml:space="preserve">
	<path fill = "white" d="M44.7,4.4C23,4.4,5.5,22,5.5,43.6c0,21.6,17.6,39.2,39.2,39.2c7,0,14-1.9,20.1-5.6l1.5-0.9l18,18  c1.2,1.2,2.8,1.8,4.4,1.8c1.7,0,3.3-0.7,4.4-1.8c1.2-1.2,1.8-2.8,1.8-4.4s-0.7-3.3-1.8-4.4L75.6,67.8l1.6-2.3  c4.4-6.5,6.7-14.1,6.7-21.9C83.9,22,66.3,4.4,44.7,4.4z M44.7,72.2c-15.8,0-28.6-12.8-28.6-28.6C16.1,27.8,28.9,15,44.7,15  c15.8,0,28.6,12.8,28.6,28.6C73.2,59.3,60.4,72.2,44.7,72.2z"/>
	<path fill = "white" d="M44.7,23.3c-5.2,0-9.4,4.2-9.4,9.4s4.2,9.4,9.4,9.4s9.4-4.2,9.4-9.4S49.9,23.3,44.7,23.3z"/>
	<path fill = "white" d="M53.4,45.6H35.9c-4.5,0-8.2,3.6-8.2,8.2v7.6h33.9v-7.6C61.6,49.2,58,45.6,53.4,45.6z"/>
</svg>