<?xml version="1.0" encoding="UTF-8"?>
<svg xmlns="http://www.w3.org/2000/svg" xmlns:xlink="http://www.w3.org/1999/xlink" viewBox="0 0 1189.89 571.15">
  <defs>
    <style>
      .cls-1 {
        fill: #fff;
      }

      .cls-2 {
        fill: #df5958;
      }

      .cls-3 {
        clip-path: url(#clippath-1);
      }

      .cls-4 {
        fill: #9eefd4;
      }

      .cls-5 {
        fill: #7e4017;
      }

      .cls-6 {
        clip-path: url(#clippath);
      }

      .cls-7 {
        fill: none;
      }

      .cls-8 {
        fill: #f4bc84;
      }
    </style>
    <clipPath id="clippath">
      <ellipse class="cls-7" cx="612.19" cy="251.27" rx="224.06" ry="216.11"/>
    </clipPath>
    <clipPath id="clippath-1">
      <ellipse class="cls-2" cx="612.19" cy="438.28" rx="155.25" ry="132.87"/>
    </clipPath>
  </defs>
  <g id="_Слой_12" data-name="Слой 12">
    <ellipse class="cls-4" cx="612.19" cy="251.27" rx="224.06" ry="216.11"/>
  </g>
  <g id="_Слой_14" data-name="Слой 14">
    <g class="cls-6">
      <g>
        <ellipse class="cls-2" cx="612.19" cy="438.28" rx="155.25" ry="132.87"/>
        <g class="cls-3">
          <circle class="cls-1" cx="570.38" cy="336.99" r="41.81"/>
          <circle class="cls-1" cx="654" cy="336.99" r="41.81"/>
        </g>
      </g>
    </g>
  </g>
  <g id="_Слой_11" data-name="Слой 11">
    <path class="cls-5" d="m605.36,124.59c-5.01-9.47-6.17-18.78-4.97-28.73,2.45-20.42,29.7-24.89,43.72-17.95,7.17,3.55,14.9,12.62,12.95,17.89-1.31,3.54-5.64,4.77-9.15,3.22-3.86-1.71-4.1-7.02-12-9.66s-21.65-1.62-22.27,7.61c-.66,9.82,7.93,26.6,2.66,31.9-2.41,2.42-9.45-1.46-10.94-4.28Z"/>
    <ellipse class="cls-8" cx="613.72" cy="222.89" rx="107.73" ry="114.09"/>
    <ellipse class="cls-8" cx="505.99" cy="234.13" rx="37.29" ry="39.5" transform="translate(-42.55 134.38) rotate(-14.52)"/>
    <ellipse class="cls-8" cx="721.46" cy="234.13" rx="39.5" ry="37.29" transform="translate(313.87 873.81) rotate(-75.48)"/>
    <path class="cls-2" d="m608.72,253.12l-8.59,11.04c-3.24,4.16-.27,10.23,5,10.23h17.18c5.28,0,8.24-6.07,5-10.23l-8.59-11.04c-2.54-3.26-7.47-3.26-10.01,0Z"/>
    <rect class="cls-5" x="657.37" y="208.23" width="12.73" height="41.15" rx="4.61" ry="4.61"/>
    <rect class="cls-5" x="559.74" y="208.23" width="12.73" height="41.15" rx="4.61" ry="4.61"/>
    <path class="cls-5" d="m655.21,284.78c0,4.43-18.04,19.03-40.29,19.03s-40.29-14.61-40.29-19.03c0-10.39,18.04,8.08,40.29,8.08s40.29-18.47,40.29-8.08Z"/>
    <path class="cls-5" d="m586.42,201.02c0-2.24-9.09-9.64-20.31-9.64s-20.31,7.4-20.31,9.64c0,5.26,9.09-1.69,20.31-1.69s20.31,6.95,20.31,1.69Z"/>
    <path class="cls-5" d="m684.04,201.02c0-2.24-9.09-9.64-20.31-9.64s-20.31,7.4-20.31,9.64c0,5.26,9.09-1.69,20.31-1.69s20.31,6.95,20.31,1.69Z"/>
  </g>
</svg>