<?xml version="1.0" encoding="UTF-8"?>
<svg id="_Слой_1" data-name="Слой 1" xmlns="http://www.w3.org/2000/svg" xmlns:xlink="http://www.w3.org/1999/xlink" viewBox="0 0 500 500">
	<defs>
		<style>
			.cls-1 {
			fill: #fff;
			}

			.cls-2 {
			fill: #df5958;
			}

			.cls-3 {
			clip-path: url(#clippath-1);
			}

			.cls-4 {
			fill: #9eefd4;
			}

			.cls-5 {
			fill: #7e4017;
			}

			.cls-6 {
			clip-path: url(#clippath);
			}

			.cls-7 {
			fill: none;
			}

			.cls-8 {
			fill: #f4bc84;
			}
		</style>
		<clipPath id="clippath">
			<circle class="cls-7" cx="250" cy="250" r="250"/>
		</clipPath>
		<clipPath id="clippath-1">
			<ellipse class="cls-7" cx="250" cy="466.34" rx="173.22" ry="153.71"/>
		</clipPath>
	</defs>
	<g id="_Слой_12" data-name=" Слой 12">
		<circle class="cls-4" cx="250" cy="250" r="250"/>
	</g>
	<g id="_Слой_14" data-name=" Слой 14">
		<g class="cls-6">
			<g>
				<ellipse class="cls-2" cx="250" cy="466.34" rx="173.22" ry="153.71"/>
				<g class="cls-3">
					<g>
						<ellipse class="cls-1" cx="203.35" cy="349.16" rx="46.65" ry="48.37"/>
						<ellipse class="cls-1" cx="296.65" cy="349.16" rx="46.65" ry="48.37"/>
					</g>
				</g>
			</g>
		</g>
	</g>
	<g id="_Слой_11" data-name=" Слой 11">
		<path class="cls-5" d="m242.38,103.45c-5.59-10.96-6.88-21.73-5.55-33.24,2.73-23.62,33.14-28.79,48.78-20.76,8,4.11,16.63,14.6,14.45,20.7-1.46,4.1-6.29,5.52-10.21,3.72-4.31-1.98-4.57-8.12-13.39-11.17s-24.16-1.87-24.85,8.8c-.74,11.36,8.85,30.77,2.97,36.9-2.69,2.8-10.54-1.69-12.21-4.95h0Z"/>
		<ellipse class="cls-8" cx="251.71" cy="217.17" rx="120.2" ry="131.98"/>
		<ellipse class="cls-8" cx="131.49" cy="230.22" rx="41.67" ry="45.63" transform="translate(-34.21 23.26) rotate(-8.95)"/>
		<ellipse class="cls-8" cx="371.86" cy="230.13" rx="45.63" ry="41.67" transform="translate(86.69 561.67) rotate(-81.05)"/>
		<path class="cls-2" d="m246.13,252.14l-9.58,12.77c-3.62,4.81-.3,11.83,5.58,11.83h19.17c5.89,0,9.19-7.02,5.58-11.83l-9.58-12.77c-2.83-3.77-8.33-3.77-11.17,0h.01Z"/>
		<path class="cls-5" d="m305.55,200.21h3.92c2.84,0,5.14,2.39,5.14,5.33v36.94c0,2.95-2.3,5.33-5.14,5.33h-3.92c-2.84,0-5.14-2.39-5.14-5.33v-36.94c0-2.95,2.3-5.33,5.14-5.33Z"/>
		<path class="cls-5" d="m196.62,200.21h3.92c2.84,0,5.14,2.39,5.14,5.33v36.94c0,2.95-2.3,5.33-5.14,5.33h-3.92c-2.84,0-5.14-2.39-5.14-5.33v-36.94c0-2.95,2.3-5.33,5.14-5.33Z"/>
		<path class="cls-5" d="m298,288.76c0,5.12-20.13,22.01-44.95,22.01s-44.95-16.9-44.95-22.01c0-12.02,20.13,9.35,44.95,9.35s44.95-21.37,44.95-9.35Z"/>
		<path class="cls-5" d="m221.25,191.87c0-2.59-10.14-11.15-22.66-11.15s-22.66,8.56-22.66,11.15c0,6.08,10.14-1.96,22.66-1.96s22.66,8.04,22.66,1.96Z"/>
		<path class="cls-5" d="m330.17,191.87c0-2.59-10.14-11.15-22.66-11.15s-22.66,8.56-22.66,11.15c0,6.08,10.14-1.96,22.66-1.96s22.66,8.04,22.66,1.96Z"/>
	</g>
</svg>