<?xml version="1.0" encoding="UTF-8"?>
<svg xmlns="http://www.w3.org/2000/svg" xmlns:xlink="http://www.w3.org/1999/xlink" viewBox="0 0 1295.96 954.15">
  <defs>
    <style>
      .cls-1 {
        clip-path: url(#clippath-2);
      }

      .cls-2 {
        fill: #df5958;
      }

      .cls-3 {
        fill: #eaae78;
      }

      .cls-4 {
        fill: #9eefd4;
      }

      .cls-5 {
        fill: #7e4017;
      }

      .cls-6 {
        clip-path: url(#clippath);
      }

      .cls-7 {
        fill: #ffa227;
      }

      .cls-8 {
        fill: none;
      }

      .cls-9 {
        fill: #f4bc84;
      }
    </style>
    <clipPath id="clippath">
      <ellipse class="cls-8" cx="612.19" cy="315.05" rx="224.06" ry="216.11"/>
    </clipPath>
    <clipPath id="clippath-2">
      <ellipse class="cls-8" cx="613.72" cy="260.48" rx="107.73" ry="107.12"/>
    </clipPath>
  </defs>
  <g id="_Слой_31" data-name="Слой 31">
    <ellipse class="cls-4" cx="612.19" cy="315.05" rx="224.06" ry="216.11"/>
  </g>
  <g id="_6" data-name="6">
    <g class="cls-6">
      <rect class="cls-9" x="462.68" y="420.88" width="304.56" height="110.27" rx="55.13" ry="55.13"/>
      <rect class="cls-2" x="513.27" y="420.88" width="200.9" height="533.27"/>
    </g>
  </g>
  <g id="_Слой_30" data-name="Слой 30">
    <path class="cls-7" d="m703.96,225.44l-9.29-11.93c-4.48-5.76-4.96-12.89-1.06-15.93l31.73-42.86c3.9-3.03,10.69-.82,15.18,4.94l26.9,34.56c4.48,5.76,4.96,12.89,1.06,15.93l-49.33,20.23c-3.9,3.03-10.69.82-15.18-4.94Z"/>
    <path class="cls-7" d="m523.48,225.44l9.29-11.93c4.48-5.76,4.96-12.89,1.06-15.93l-31.73-42.86c-3.9-3.03-10.69-.82-15.18,4.94l-26.9,34.56c-4.48,5.76-4.96,12.89-1.06,15.93l49.33,20.23c3.9,3.03,10.69.82,15.18-4.94Z"/>
  </g>
  <g id="_Слой_32" data-name="Слой 32">
    <ellipse class="cls-7" cx="613.72" cy="259.65" rx="117.33" ry="110.97"/>
    <ellipse class="cls-7" cx="613.72" cy="278.79" rx="117.33" ry="130.11"/>
  </g>
  <g id="_Слой_19" data-name="Слой 19">
    <rect class="cls-3" x="572.48" y="315.05" width="84.89" height="146.95" rx="42.45" ry="42.45"/>
  </g>
  <g id="_6-2" data-name="6">
    <g>
      <ellipse class="cls-9" cx="513.27" cy="302.25" rx="30.17" ry="35.47"/>
      <ellipse class="cls-9" cx="714.17" cy="302.25" rx="30.17" ry="35.47"/>
    </g>
  </g>
  <g id="_Слой_27" data-name="Слой 27">
    <ellipse class="cls-9" cx="613.72" cy="282.15" rx="107.73" ry="128.78"/>
  </g>
  <g id="_Слой_22" data-name="Слой 22">
    <g class="cls-1">
      <ellipse class="cls-7" cx="520.51" cy="208.46" rx="94.41" ry="46.7"/>
      <ellipse class="cls-7" cx="759.7" cy="219.81" rx="79.1" ry="106.51"/>
      <ellipse class="cls-7" cx="467.24" cy="231.66" rx="79.1" ry="106.51"/>
      <ellipse class="cls-7" cx="709.33" cy="208.46" rx="94.41" ry="46.7"/>
      <ellipse class="cls-7" cx="607.68" cy="162.02" rx="94.41" ry="46.7"/>
      <ellipse class="cls-9" cx="614.92" cy="292.65" rx="99.25" ry="95.37"/>
    </g>
  </g>
  <g id="_Слой_23" data-name="Слой 23">
    <path class="cls-2" d="m608.72,316.9l-8.59,11.04c-3.24,4.16-.27,10.23,5,10.23h17.18c5.28,0,8.24-6.07,5-10.23l-8.59-11.04c-2.54-3.26-7.47-3.26-10.01,0Z"/>
    <rect class="cls-5" x="657.37" y="272.01" width="12.73" height="41.15" rx="4.61" ry="4.61"/>
    <rect class="cls-5" x="559.74" y="272.01" width="12.73" height="41.15" rx="4.61" ry="4.61"/>
    <path class="cls-5" d="m586.42,264.8c0-2.24-9.09-9.64-20.31-9.64s-20.31,7.4-20.31,9.64c0,5.26,9.09-1.69,20.31-1.69s20.31,6.95,20.31,1.69Z"/>
    <path class="cls-5" d="m684.04,264.8c0-2.24-9.09-9.64-20.31-9.64s-20.31,7.4-20.31,9.64c0,5.26,9.09-1.69,20.31-1.69s20.31,6.95,20.31,1.69Z"/>
  </g>
  <g id="_6-3" data-name="6">
    <path class="cls-5" d="m647.63,354.42c0,4.43-15.18,19.03-33.91,19.03s-33.91-14.61-33.91-19.03c0-10.39,15.18,8.08,33.91,8.08s33.91-18.47,33.91-8.08Z"/>
  </g>
</svg>