<?xml version="1.0" encoding="UTF-8"?>
<svg id="_Слой_1" data-name="Слой 1" xmlns="http://www.w3.org/2000/svg" xmlns:xlink="http://www.w3.org/1999/xlink" viewBox="0 0 502.85 989.32">
	<defs>
		<style>
			.cls-1 {
			fill: #df5958;
			}

			.cls-2 {
			clip-path: url(#clippath-1);
			}

			.cls-3 {
			fill: #eaae78;
			}

			.cls-4 {
			fill: #9eefd4;
			}

			.cls-5 {
			fill: #7e4017;
			}

			.cls-6 {
			clip-path: url(#clippath);
			}

			.cls-7 {
			fill: #ffa227;
			}

			.cls-8 {
			fill: none;
			}

			.cls-9 {
			fill: #f4bc84;
			}
		</style>
		<clipPath id="clippath">
			<circle class="cls-8" cx="250" cy="250" r="250"/>
		</clipPath>
		<clipPath id="clippath-1">
			<ellipse class="cls-8" cx="251.71" cy="186.87" rx="120.2" ry="123.92"/>
		</clipPath>
	</defs>
	<g id="_Слой_31" data-name=" Слой 31">
		<circle class="cls-4" cx="250" cy="250" r="250"/>
	</g>
	<g id="_6" data-name=" 6">
		<g class="cls-6">
			<g>
				<path class="cls-9" d="m144.69,372.43h216.79c33.97,0,61.51,28.55,61.51,63.78h0c0,35.23-27.54,63.79-61.51,63.79h-216.79c-33.97,0-61.51-28.55-61.51-63.78h0c0-35.23,27.54-63.79,61.51-63.79Z"/>
				<rect class="cls-1" x="139.63" y="372.43" width="224.16" height="616.9"/>
			</g>
		</g>
	</g>
	<g id="_Слой_30" data-name=" Слой 30">
		<path class="cls-7" d="m352.39,146.34l-10.37-13.8c-5-6.66-5.53-14.91-1.18-18.43l35.4-49.58c4.35-3.51,11.93-.95,16.94,5.71l30.01,39.98c5,6.66,5.53,14.91,1.18,18.43l-55.04,23.4c-4.35,3.51-11.93.95-16.94-5.71h-.01Z"/>
		<path class="cls-7" d="m151.02,146.34l10.37-13.8c5-6.66,5.53-14.91,1.18-18.43l-35.4-49.58c-4.35-3.51-11.93-.95-16.94,5.71l-30.01,39.98c-5,6.66-5.53,14.91-1.18,18.43l55.04,23.4c4.35,3.51,11.93.95,16.94-5.71h.01Z"/>
	</g>
	<g id="_Слой_32" data-name=" Слой 32">
		<ellipse class="cls-7" cx="251.71" cy="185.91" rx="130.91" ry="128.37"/>
		<ellipse class="cls-7" cx="251.71" cy="208.05" rx="130.91" ry="150.51"/>
	</g>
	<g id="_Слой_19" data-name=" Слой 19">
		<path class="cls-3" d="m253.05,250h0c26.16,0,47.36,21.99,47.36,49.11v71.78c0,27.12-21.2,49.11-47.36,49.11h0c-26.16,0-47.36-21.99-47.36-49.11v-71.78c0-27.12,21.2-49.11,47.36-49.11Z"/>
	</g>
	<g id="_6-2" data-name=" 6-2">
		<g>
			<ellipse class="cls-9" cx="139.63" cy="235.19" rx="33.66" ry="41.03"/>
			<ellipse class="cls-9" cx="363.79" cy="235.19" rx="33.66" ry="41.03"/>
		</g>
	</g>
	<g id="_Слой_27" data-name=" Слой 27">
		<ellipse class="cls-9" cx="251.71" cy="211.94" rx="120.2" ry="148.98"/>
	</g>
	<g id="_Слой_22" data-name=" Слой 22">
		<g class="cls-2">
			<g>
				<ellipse class="cls-7" cx="147.71" cy="126.69" rx="105.34" ry="54.02"/>
				<ellipse class="cls-7" cx="414.59" cy="139.82" rx="88.26" ry="123.21"/>
				<ellipse class="cls-7" cx="88.27" cy="153.53" rx="88.26" ry="123.21"/>
				<ellipse class="cls-7" cx="358.39" cy="126.69" rx="105.34" ry="54.02"/>
				<ellipse class="cls-7" cx="244.97" cy="72.97" rx="105.34" ry="54.02"/>
				<ellipse class="cls-9" cx="253.05" cy="224.09" rx="110.74" ry="110.33"/>
			</g>
		</g>
	</g>
	<g id="_Слой_23" data-name=" Слой 23">
		<path class="cls-1" d="m246.13,252.14l-9.58,12.77c-3.62,4.81-.3,11.83,5.58,11.83h19.17c5.89,0,9.19-7.02,5.58-11.83l-9.58-12.77c-2.83-3.77-8.33-3.77-11.17,0h.01Z"/>
		<path class="cls-5" d="m305.55,200.21h3.92c2.84,0,5.14,2.39,5.14,5.33v36.94c0,2.95-2.3,5.33-5.14,5.33h-3.92c-2.84,0-5.14-2.39-5.14-5.33v-36.94c0-2.95,2.3-5.33,5.14-5.33Z"/>
		<path class="cls-5" d="m196.62,200.21h3.92c2.84,0,5.14,2.39,5.14,5.33v36.94c0,2.95-2.3,5.33-5.14,5.33h-3.92c-2.84,0-5.14-2.39-5.14-5.33v-36.94c0-2.95,2.3-5.33,5.14-5.33Z"/>
		<path class="cls-5" d="m221.25,191.87c0-2.59-10.14-11.15-22.66-11.15s-22.66,8.56-22.66,11.15c0,6.08,10.14-1.96,22.66-1.96s22.66,8.04,22.66,1.96Z"/>
		<path class="cls-5" d="m330.17,191.87c0-2.59-10.14-11.15-22.66-11.15s-22.66,8.56-22.66,11.15c0,6.08,10.14-1.96,22.66-1.96s22.66,8.04,22.66,1.96Z"/>
	</g>
	<g id="_6-3" data-name=" 6-3">
		<path class="cls-5" d="m289.54,295.54c0,5.12-16.94,22.01-37.84,22.01s-37.84-16.9-37.84-22.01c0-12.02,16.94,9.35,37.84,9.35s37.84-21.37,37.84-9.35Z"/>
	</g>
</svg>