<?xml version="1.0" encoding="UTF-8"?>
<svg id="_Слой_1" data-name="Слой 1" xmlns="http://www.w3.org/2000/svg" xmlns:xlink="http://www.w3.org/1999/xlink" viewBox="0 0 1160.27 614.46">
	<defs>
		<style>
			.cls-1 {
			fill: #df5958;
			}

			.cls-2 {
			clip-path: url(#clippath-1);
			}

			.cls-3 {
			fill: #eaae78;
			}

			.cls-4 {
			fill: #9eefd4;
			}

			.cls-5 {
			fill: #7e4017;
			}

			.cls-6 {
			clip-path: url(#clippath);
			}

			.cls-7 {
			fill: #ffa227;
			}

			.cls-8 {
			fill: none;
			}

			.cls-9 {
			fill: #f4bc84;
			}
		</style>
		<clipPath id="clippath">
			<circle class="cls-8" cx="528.34" cy="364.46" r="250"/>
		</clipPath>
		<clipPath id="clippath-1">
			<ellipse class="cls-8" cx="530.05" cy="301.33" rx="120.2" ry="123.92"/>
		</clipPath>
	</defs>
	<g id="_6" data-name=" 6">
		<g class="cls-6">
			<g>
				<circle class="cls-4" cx="528.34" cy="364.46" r="250"/>
				<ellipse class="cls-7" cx="530.05" cy="315.08" rx="154.51" ry="151.1"/>
				<path class="cls-7" d="m392.05,308.6h276.13c9.04,0,16.37,7.6,16.37,16.97v132.83c0,9.37-7.33,16.97-16.37,16.97h-276.13c-9.04,0-16.37-7.6-16.37-16.97v-132.83c0-9.37,7.33-16.97,16.37-16.97Z"/>
				<path class="cls-3" d="m531.39,364.46h0c26.16,0,47.36,21.99,47.36,49.11v71.61c0,27.12-21.2,49.11-47.36,49.11h0c-26.16,0-47.36-21.99-47.36-49.11v-71.61c0-27.12,21.2-49.11,47.36-49.11Z"/>
				<path class="cls-1" d="m423.03,486.88h216.79c33.97,0,61.51,28.55,61.51,63.78h0c0,35.23-27.54,63.79-61.51,63.79h-216.79c-33.97,0-61.51-28.55-61.51-63.78h0c0-35.23,27.54-63.79,61.51-63.79Z"/>
			</g>
		</g>
		<polygon class="cls-3" points="531.35 535.98 578.72 492.63 578.54 484.17 484 484.17 484 493.76 531.35 535.98"/>
	</g>
	<g id="_6-3" data-name=" 6-3">
		<ellipse class="cls-9" cx="530.05" cy="326.4" rx="120.2" ry="148.98"/>
	</g>
	<g id="_6-4" data-name=" 6-4">
		<rect class="cls-7" x="624.48" y="295.17" width="25.69" height="67.1"/>
		<rect class="cls-7" x="409.85" y="297.36" width="25.69" height="67.1"/>
	</g>
	<g id="_6-5" data-name=" 6-5">
		<ellipse class="cls-9" cx="417.97" cy="349.65" rx="33.66" ry="41.03"/>
		<ellipse class="cls-9" cx="642.13" cy="349.65" rx="33.66" ry="41.03"/>
	</g>
	<g id="_6-6" data-name=" 6-6">
		<g class="cls-2">
			<g>
				<ellipse class="cls-7" cx="307.62" cy="159.47" rx="307.62" ry="159.47"/>
				<ellipse class="cls-7" cx="852.65" cy="189.95" rx="307.62" ry="158.7"/>
			</g>
		</g>
		<path class="cls-7" d="m630.89,296.38h4.83c3.54,0,6.42,2.98,6.42,6.65v52.58c0,3.67-2.87,6.65-6.42,6.65h-4.83c-3.54,0-6.42-2.98-6.42-6.65v-52.58c0-3.67,2.87-6.65,6.42-6.65Z"/>
		<path class="cls-7" d="m424.38,297.97h4.83c3.54,0,6.42,2.98,6.42,6.65v52.58c0,3.67-2.87,6.65-6.42,6.65h-4.83c-3.54,0-6.42-2.98-6.42-6.65v-52.58c0-3.67,2.87-6.65,6.42-6.65Z"/>
	</g>
	<g id="_6-7" data-name=" 6-7">
		<path class="cls-1" d="m524.47,366.6l-9.58,12.77c-3.62,4.81-.3,11.83,5.58,11.83h19.17c5.89,0,9.19-7.02,5.58-11.83l-9.58-12.77c-2.83-3.77-8.33-3.77-11.17,0h.01Z"/>
		<path class="cls-5" d="m583.89,314.67h3.92c2.84,0,5.14,2.39,5.14,5.33v36.94c0,2.95-2.3,5.33-5.14,5.33h-3.92c-2.84,0-5.14-2.39-5.14-5.33v-36.94c0-2.95,2.3-5.33,5.14-5.33Z"/>
		<path class="cls-5" d="m474.96,314.67h3.92c2.84,0,5.14,2.39,5.14,5.33v36.94c0,2.95-2.3,5.33-5.14,5.33h-3.92c-2.84,0-5.14-2.39-5.14-5.33v-36.94c0-2.95,2.3-5.33,5.14-5.33Z"/>
		<path class="cls-5" d="m499.59,306.33c0-2.59-10.14-11.15-22.66-11.15s-22.66,8.56-22.66,11.15c0,6.08,10.14-1.96,22.66-1.96s22.66,8.04,22.66,1.96Z"/>
		<path class="cls-5" d="m608.51,306.33c0-2.59-10.14-11.15-22.66-11.15s-22.66,8.56-22.66,11.15c0,6.08,10.14-1.96,22.66-1.96s22.66,8.04,22.66,1.96Z"/>
		<path class="cls-5" d="m567.88,410c0,5.12-16.94,22.01-37.84,22.01s-37.84-16.9-37.84-22.01c0-12.02,16.94,9.35,37.84,9.35s37.84-21.37,37.84-9.35Z"/>
	</g>
</svg>