<?xml version="1.0" encoding="UTF-8"?>
<svg xmlns="http://www.w3.org/2000/svg" xmlns:xlink="http://www.w3.org/1999/xlink" viewBox="0 0 1295.96 531.16">
  <defs>
    <style>
      .cls-1 {
        fill: #df5958;
      }

      .cls-2 {
        clip-path: url(#clippath-1);
      }

      .cls-3 {
        fill: #eaae78;
      }

      .cls-4 {
        fill: #9eefd4;
      }

      .cls-5 {
        fill: #7e4017;
      }

      .cls-6 {
        clip-path: url(#clippath);
      }

      .cls-7 {
        fill: #ffa227;
      }

      .cls-8 {
        fill: none;
      }

      .cls-9 {
        fill: #f4bc84;
      }
    </style>
    <clipPath id="clippath">
      <ellipse class="cls-8" cx="612.19" cy="315.05" rx="224.06" ry="216.11"/>
    </clipPath>
    <clipPath id="clippath-1">
      <ellipse class="cls-8" cx="613.72" cy="260.48" rx="107.73" ry="107.12"/>
    </clipPath>
  </defs>
  <g id="_6" data-name="6">
    <g class="cls-6">
      <ellipse class="cls-4" cx="612.19" cy="315.05" rx="224.06" ry="216.11"/>
      <ellipse class="cls-7" cx="613.72" cy="272.37" rx="138.48" ry="130.62"/>
      <rect class="cls-7" x="475.37" y="266.77" width="276.82" height="144.16" rx="14.67" ry="14.67"/>
      <rect class="cls-3" x="572.48" y="315.05" width="84.89" height="146.8" rx="42.45" ry="42.45"/>
      <rect class="cls-1" x="462.68" y="420.88" width="304.56" height="110.27" rx="55.13" ry="55.13"/>
    </g>
    <polygon class="cls-3" points="614.89 463.32 657.34 425.85 657.18 418.54 572.45 418.54 572.45 426.83 614.89 463.32"/>
  </g>
  <g id="_6-3" data-name="6">
    <ellipse class="cls-9" cx="613.72" cy="282.15" rx="107.73" ry="128.78"/>
  </g>
  <g id="_6-4" data-name="6">
    <rect class="cls-7" x="698.35" y="255.16" width="23.02" height="58"/>
    <rect class="cls-7" x="505.99" y="257.05" width="23.02" height="58"/>
  </g>
  <g id="_6-5" data-name="6">
    <ellipse class="cls-9" cx="513.27" cy="302.25" rx="30.17" ry="35.47"/>
    <ellipse class="cls-9" cx="714.17" cy="302.25" rx="30.17" ry="35.47"/>
  </g>
  <g id="_6-6" data-name="6">
    <g class="cls-2">
      <g>
        <ellipse class="cls-7" cx="414.37" cy="137.85" rx="275.7" ry="137.85"/>
        <ellipse class="cls-7" cx="902.85" cy="164.2" rx="275.7" ry="137.19"/>
      </g>
    </g>
    <rect class="cls-7" x="698.35" y="256.2" width="15.83" height="56.95" rx="5.75" ry="5.75"/>
    <rect class="cls-7" x="513.27" y="257.58" width="15.83" height="56.95" rx="5.75" ry="5.75"/>
  </g>
  <g id="_6-7" data-name="6">
    <path class="cls-1" d="m608.72,316.9l-8.59,11.04c-3.24,4.16-.27,10.23,5,10.23h17.18c5.28,0,8.24-6.07,5-10.23l-8.59-11.04c-2.54-3.26-7.47-3.26-10.01,0Z"/>
    <rect class="cls-5" x="657.37" y="272.01" width="12.73" height="41.15" rx="4.61" ry="4.61"/>
    <rect class="cls-5" x="559.74" y="272.01" width="12.73" height="41.15" rx="4.61" ry="4.61"/>
    <path class="cls-5" d="m586.42,264.8c0-2.24-9.09-9.64-20.31-9.64s-20.31,7.4-20.31,9.64c0,5.26,9.09-1.69,20.31-1.69s20.31,6.95,20.31,1.69Z"/>
    <path class="cls-5" d="m684.04,264.8c0-2.24-9.09-9.64-20.31-9.64s-20.31,7.4-20.31,9.64c0,5.26,9.09-1.69,20.31-1.69s20.31,6.95,20.31,1.69Z"/>
    <path class="cls-5" d="m647.63,354.42c0,4.43-15.18,19.03-33.91,19.03s-33.91-14.61-33.91-19.03c0-10.39,15.18,8.08,33.91,8.08s33.91-18.47,33.91-8.08Z"/>
  </g>
</svg>