<?xml version="1.0" encoding="UTF-8"?>
<svg id="_Слой_1" data-name="Слой 1" xmlns="http://www.w3.org/2000/svg" xmlns:xlink="http://www.w3.org/1999/xlink" viewBox="0 0 500 500">
	<defs>
		<style>
			.cls-1 {
			fill: #fff;
			}

			.cls-2 {
			fill: #df5958;
			}

			.cls-3 {
			clip-path: url(#clippath-1);
			}

			.cls-4 {
			fill: #eaae78;
			}

			.cls-5 {
			fill: #9eefd4;
			}

			.cls-6 {
			fill: #7e4017;
			}

			.cls-7 {
			clip-path: url(#clippath);
			}

			.cls-8 {
			fill: #ffa227;
			}

			.cls-9 {
			fill: none;
			}

			.cls-10 {
			fill: #f4bc84;
			}
		</style>
		<clipPath id="clippath">
			<circle class="cls-9" cx="250" cy="250" r="250"/>
		</clipPath>
		<clipPath id="clippath-1">
			<ellipse class="cls-9" cx="251.71" cy="186.87" rx="120.2" ry="123.92"/>
		</clipPath>
	</defs>
	<g id="_6" data-name=" 6">
		<g class="cls-7">
			<g>
				<circle class="cls-5" cx="250" cy="250" r="250"/>
				<ellipse class="cls-8" cx="251.71" cy="200.62" rx="154.51" ry="151.1"/>
				<rect class="cls-8" x="97.34" y="194.14" width="308.87" height="240.57"/>
				<path class="cls-2" d="m144.69,372.42h216.79c33.97,0,61.51,28.55,61.51,63.78h0c0,35.23-27.54,63.79-61.51,63.79h-216.79c-33.97,0-61.51-28.55-61.51-63.78h0c0-35.23,27.54-63.79,61.51-63.79h0Z"/>
				<path class="cls-1" d="m193.24,360.89h119.61c9.56,0,17.32,8.04,17.32,17.95v19.64c0,9.92-7.75,17.95-17.32,17.95h-119.61c-9.56,0-17.32-8.04-17.32-17.95v-19.64c0-9.92,7.75-17.95,17.32-17.95h0Z"/>
				<path class="cls-4" d="m253.05,250h0c26.16,0,47.36,21.99,47.36,49.11v71.61c0,27.12-21.2,49.11-47.36,49.11h0c-26.16,0-47.36-21.99-47.36-49.11v-71.61c0-27.12,21.2-49.11,47.36-49.11h0Z"/>
				<path class="cls-1" d="m204.04,366.17l72.62,75.3c6.76,7.01,6.76,18.38,0,25.39l-15.71,16.29c-6.76,7.01-17.73,7.01-24.49,0l-72.62-75.3c-6.76-7.01-6.76-18.38,0-25.39l15.71-16.29c6.76-7.01,17.73-7.01,24.49,0h0Z"/>
				<path class="cls-1" d="m340.95,407.84l-76.3,79.11c-6.76,7.01-17.73,7.01-24.49,0l-15.71-16.29c-6.76-7.01-6.76-18.38,0-25.39l76.3-79.11c6.76-7.01,17.73-7.01,24.49,0l15.71,16.29c6.76,7.01,6.76,18.38,0,25.39h0Z"/>
			</g>
		</g>
	</g>
	<g id="_6-3" data-name=" 6-3">
		<ellipse class="cls-10" cx="251.71" cy="211.94" rx="120.2" ry="148.98"/>
	</g>
	<g id="_6-4" data-name=" 6-4">
		<rect class="cls-8" x="346.14" y="180.71" width="25.69" height="67.1"/>
		<rect class="cls-8" x="131.51" y="182.9" width="25.69" height="67.1"/>
	</g>
	<g id="_6-5" data-name=" 6-5">
		<ellipse class="cls-10" cx="139.63" cy="235.19" rx="33.66" ry="41.03"/>
		<ellipse class="cls-10" cx="363.79" cy="235.19" rx="33.66" ry="41.03"/>
	</g>
	<g id="_6-6" data-name=" 6-6">
		<g class="cls-3">
			<g>
				<path class="cls-8" d="m324.48,0c8.09,14.27,12.42,29.38,12.42,45.01,0,88.07-137.73,159.47-307.62,159.47-9.88,0-19.64-.24-29.28-.71"/>
				<path class="cls-8" d="m228.56,53.96c2.42,4.15,3.72,8.54,3.72,13.08,0,25.6-41.2,46.35-92.01,46.35-2.95,0-5.88-.07-8.76-.21"/>
				<path class="cls-8" d="m500,229.53c-133.99-17.15-233.31-79.61-233.31-154.04,0-27.33,13.39-53.04,36.97-75.49"/>
			</g>
		</g>
		<path class="cls-8" d="m352.55,181.92h4.83c3.54,0,6.42,2.98,6.42,6.65v52.58c0,3.67-2.87,6.65-6.42,6.65h-4.83c-3.54,0-6.42-2.98-6.42-6.65v-52.58c0-3.67,2.87-6.65,6.42-6.65h0Z"/>
		<path class="cls-8" d="m146.04,183.51h4.83c3.54,0,6.42,2.98,6.42,6.65v52.58c0,3.67-2.87,6.65-6.42,6.65h-4.83c-3.54,0-6.42-2.98-6.42-6.65v-52.58c0-3.67,2.87-6.65,6.42-6.65Z"/>
	</g>
	<g id="_6-7" data-name=" 6-7">
		<path class="cls-2" d="m246.13,252.14l-9.58,12.77c-3.62,4.81-.3,11.83,5.58,11.83h19.17c5.89,0,9.19-7.02,5.58-11.83l-9.58-12.77c-2.83-3.77-8.33-3.77-11.17,0h.01-.01Z"/>
		<path class="cls-6" d="m305.55,200.21h3.92c2.84,0,5.14,2.39,5.14,5.33v36.94c0,2.95-2.3,5.33-5.14,5.33h-3.92c-2.84,0-5.14-2.39-5.14-5.33v-36.94c0-2.95,2.3-5.33,5.14-5.33Z"/>
		<path class="cls-6" d="m196.62,200.21h3.92c2.84,0,5.14,2.39,5.14,5.33v36.94c0,2.95-2.3,5.33-5.14,5.33h-3.92c-2.84,0-5.14-2.39-5.14-5.33v-36.94c0-2.95,2.3-5.33,5.14-5.33Z"/>
		<path class="cls-6" d="m221.25,191.87c0-2.59-10.14-11.15-22.66-11.15s-22.66,8.56-22.66,11.15c0,6.08,10.14-1.96,22.66-1.96s22.66,8.04,22.66,1.96Z"/>
		<path class="cls-6" d="m330.17,191.87c0-2.59-10.14-11.15-22.66-11.15s-22.66,8.56-22.66,11.15c0,6.08,10.14-1.96,22.66-1.96s22.66,8.04,22.66,1.96Z"/>
		<path class="cls-6" d="m289.54,295.54c0,5.12-16.94,22.01-37.84,22.01s-37.84-16.9-37.84-22.01c0-12.02,16.94,9.35,37.84,9.35s37.84-21.37,37.84-9.35Z"/>
	</g>
</svg>