<?xml version="1.0" encoding="UTF-8"?>
<svg id="_Слой_1" data-name="Слой 1" xmlns="http://www.w3.org/2000/svg" xmlns:xlink="http://www.w3.org/1999/xlink" viewBox="0 0 500 500">
	<defs>
		<style>
			.cls-1 {
			fill: #d8d8d8;
			}

			.cls-2 {
			fill: #df5958;
			}

			.cls-3 {
			fill: #7fe2c6;
			}

			.cls-4 {
			clip-path: url(#clippath-1);
			}

			.cls-5 {
			fill: #9eefd4;
			}

			.cls-6 {
			fill: #7e4017;
			}

			.cls-7 {
			clip-path: url(#clippath);
			}

			.cls-8 {
			fill: none;
			}

			.cls-9 {
			fill: #bcbcbc;
			}

			.cls-10 {
			fill: #f4bc84;
			}
		</style>
		<clipPath id="clippath">
			<circle class="cls-8" cx="250" cy="250" r="250"/>
		</clipPath>
		<clipPath id="clippath-1">
			<ellipse class="cls-8" cx="251.71" cy="186.87" rx="120.2" ry="123.92"/>
		</clipPath>
	</defs>
	<g id="_1" data-name=" 1">
		<circle class="cls-3" cx="250" cy="250" r="250"/>
	</g>
	<g id="_6" data-name=" 6">
		<g>
			<ellipse class="cls-1" cx="253.05" cy="329.95" rx="77.12" ry="51.94"/>
			<path class="cls-1" d="m337.3,332.04h0c-4.88,0-8.83-4.1-8.83-9.15l17.66-89.71c0-5.06,3.95-9.15,8.83-9.15h0c4.88,0,8.83,4.1,8.83,9.15l-3.53,42.84c0,5.06-18.09,56.04-22.96,56.04h0v-.02Z"/>
			<path class="cls-1" d="m167.1,332.04h0c4.88,0,10.76-1.45,10.76-6.5l-19.59-92.36c0-5.06-3.95-9.15-8.83-9.15h0c-4.88,0-8.83,4.1-8.83,9.15l2.22,46.15c0,5.06,19.39,52.73,24.27,52.73h0v-.02Z"/>
		</g>
	</g>
	<g id="_Слой_22" data-name=" Слой 22">
		<g class="cls-7">
			<g>
				<circle class="cls-5" cx="250" cy="250" r="250"/>
				<path class="cls-2" d="m144.69,372.42h216.79c33.97,0,61.51,28.55,61.51,63.78h0c0,35.23-27.54,63.79-61.51,63.79h-216.79c-33.97,0-61.51-28.55-61.51-63.78h0c0-35.23,27.54-63.79,61.51-63.79h0Z"/>
				<path class="cls-2" d="m332.24,415.47l-161.23-.61c-14.81-.06-24.5-16.1-18.08-29.94l16.97-36.58c3.36-7.23,10.41-11.83,18.15-11.83h128.45c7.98,0,15.21,4.89,18.43,12.46l15.81,37.18c5.88,13.84-3.93,29.36-18.51,29.31h.01Z"/>
			</g>
		</g>
	</g>
	<g id="_Слой_28" data-name=" Слой 28">
		<ellipse class="cls-9" cx="303.04" cy="87.87" rx="60.74" ry="62.98"/>
	</g>
	<g id="_Слой_20" data-name=" Слой 20">
		<ellipse class="cls-10" cx="251.71" cy="211.94" rx="120.2" ry="148.98"/>
	</g>
	<g id="_Слой_26" data-name=" Слой 26">
		<rect class="cls-9" x="346.14" y="180.71" width="25.69" height="67.1"/>
		<rect class="cls-9" x="131.51" y="182.9" width="25.69" height="67.1"/>
	</g>
	<g id="_Слой_27" data-name=" Слой 27">
		<ellipse class="cls-10" cx="139.63" cy="235.19" rx="33.66" ry="41.03"/>
		<ellipse class="cls-10" cx="363.79" cy="235.19" rx="33.66" ry="41.03"/>
	</g>
	<g id="_Слой_25" data-name=" Слой 25">
		<g class="cls-4">
			<g>
				<path class="cls-9" d="m324.48,0c8.09,14.27,12.42,29.38,12.42,45.01,0,88.07-137.73,159.47-307.62,159.47-9.86,0-19.62-.24-29.25-.71"/>
				<path class="cls-9" d="m500,229.53c-133.99-17.15-233.31-79.61-233.31-154.04,0-27.33,13.39-53.04,36.97-75.49"/>
				<path class="cls-9" d="m231.54,34.07c3.27,6.77,5.02,13.94,5.02,21.35,0,41.78-55.68,75.64-124.36,75.64-3.99,0-7.93-.11-11.82-.34"/>
			</g>
		</g>
		<path class="cls-9" d="m352.55,181.92h4.83c3.54,0,6.42,2.98,6.42,6.65v52.58c0,3.67-2.87,6.65-6.42,6.65h-4.83c-3.54,0-6.42-2.98-6.42-6.65v-52.58c0-3.67,2.87-6.65,6.42-6.65h0Z"/>
		<path class="cls-9" d="m146.04,183.51h4.83c3.54,0,6.42,2.98,6.42,6.65v52.58c0,3.67-2.87,6.65-6.42,6.65h-4.83c-3.54,0-6.42-2.98-6.42-6.65v-52.58c0-3.67,2.87-6.65,6.42-6.65Z"/>
	</g>
	<g id="_Слой_24" data-name=" Слой 24">
		<path class="cls-2" d="m246.13,252.14l-9.58,12.77c-3.62,4.81-.3,11.83,5.58,11.83h19.17c5.89,0,9.19-7.02,5.58-11.83l-9.58-12.77c-2.83-3.77-8.33-3.77-11.17,0h.01-.01Z"/>
		<path class="cls-6" d="m305.55,200.21h3.92c2.84,0,5.14,2.39,5.14,5.33v36.94c0,2.95-2.3,5.33-5.14,5.33h-3.92c-2.84,0-5.14-2.39-5.14-5.33v-36.94c0-2.95,2.3-5.33,5.14-5.33Z"/>
		<path class="cls-6" d="m196.62,200.21h3.92c2.84,0,5.14,2.39,5.14,5.33v36.94c0,2.95-2.3,5.33-5.14,5.33h-3.92c-2.84,0-5.14-2.39-5.14-5.33v-36.94c0-2.95,2.3-5.33,5.14-5.33Z"/>
		<path class="cls-6" d="m221.25,191.87c0-2.59-10.14-11.15-22.66-11.15s-22.66,8.56-22.66,11.15c0,6.08,10.14-1.96,22.66-1.96s22.66,8.04,22.66,1.96Z"/>
		<path class="cls-6" d="m330.17,191.87c0-2.59-10.14-11.15-22.66-11.15s-22.66,8.56-22.66,11.15c0,6.08,10.14-1.96,22.66-1.96s22.66,8.04,22.66,1.96Z"/>
		<path class="cls-6" d="m289.54,295.54c0,5.12-16.94,22.01-37.84,22.01s-37.84-16.9-37.84-22.01c0-12.02,16.94,9.35,37.84,9.35s37.84-21.37,37.84-9.35Z"/>
	</g>
</svg>