<?xml version="1.0" encoding="UTF-8"?>
<svg id="_Слой_1" data-name="Слой 1" xmlns="http://www.w3.org/2000/svg" xmlns:xlink="http://www.w3.org/1999/xlink" viewBox="0 0 1160.27 614.46">
	<defs>
		<style>
			.cls-1 {
			fill: #d8d8d8;
			}

			.cls-2 {
			fill: #df5958;
			}

			.cls-3 {
			fill: #7fe2c6;
			}

			.cls-4 {
			clip-path: url(#clippath-1);
			}

			.cls-5 {
			fill: #9eefd4;
			}

			.cls-6 {
			fill: #7e4017;
			}

			.cls-7 {
			clip-path: url(#clippath);
			}

			.cls-8 {
			fill: none;
			}

			.cls-9 {
			fill: #bcbcbc;
			}

			.cls-10 {
			fill: #f4bc84;
			}
		</style>
		<clipPath id="clippath">
			<circle class="cls-8" cx="528.34" cy="364.46" r="250"/>
		</clipPath>
		<clipPath id="clippath-1">
			<ellipse class="cls-8" cx="530.05" cy="301.33" rx="120.2" ry="123.92"/>
		</clipPath>
	</defs>
	<g id="_1" data-name=" 1">
		<circle class="cls-3" cx="528.34" cy="364.46" r="250"/>
	</g>
	<g id="_6" data-name=" 6">
		<g>
			<ellipse class="cls-1" cx="531.39" cy="444.41" rx="77.12" ry="51.94"/>
			<path class="cls-1" d="m615.64,446.5h0c-4.88,0-8.83-4.1-8.83-9.15l17.66-89.71c0-5.06,3.95-9.15,8.83-9.15h0c4.88,0,8.83,4.1,8.83,9.15l-3.53,42.84c0,5.06-18.09,56.04-22.96,56.04h0Z"/>
			<path class="cls-1" d="m445.44,446.5h0c4.88,0,10.76-1.45,10.76-6.5l-19.59-92.36c0-5.06-3.95-9.15-8.83-9.15h0c-4.88,0-8.83,4.1-8.83,9.15l2.22,46.15c0,5.06,19.39,52.73,24.27,52.73h0Z"/>
		</g>
	</g>
	<g id="_Слой_22" data-name=" Слой 22">
		<g class="cls-7">
			<g>
				<circle class="cls-5" cx="528.34" cy="364.46" r="250"/>
				<path class="cls-2" d="m423.03,486.88h216.79c33.97,0,61.51,28.55,61.51,63.78h0c0,35.23-27.54,63.79-61.51,63.79h-216.79c-33.97,0-61.51-28.55-61.51-63.78h0c0-35.23,27.54-63.79,61.51-63.79Z"/>
				<path class="cls-2" d="m610.58,529.93l-161.23-.61c-14.81-.06-24.5-16.1-18.08-29.94l16.97-36.58c3.36-7.23,10.41-11.83,18.15-11.83h128.45c7.98,0,15.21,4.89,18.43,12.46l15.81,37.18c5.88,13.84-3.93,29.36-18.51,29.31h0Z"/>
			</g>
		</g>
	</g>
	<g id="_Слой_28" data-name=" Слой 28">
		<ellipse class="cls-9" cx="581.38" cy="202.33" rx="60.74" ry="62.98"/>
	</g>
	<g id="_Слой_20" data-name=" Слой 20">
		<ellipse class="cls-10" cx="530.05" cy="326.4" rx="120.2" ry="148.98"/>
	</g>
	<g id="_Слой_26" data-name=" Слой 26">
		<rect class="cls-9" x="624.48" y="295.17" width="25.69" height="67.1"/>
		<rect class="cls-9" x="409.85" y="297.36" width="25.69" height="67.1"/>
	</g>
	<g id="_Слой_27" data-name=" Слой 27">
		<ellipse class="cls-10" cx="417.97" cy="349.65" rx="33.66" ry="41.03"/>
		<ellipse class="cls-10" cx="642.13" cy="349.65" rx="33.66" ry="41.03"/>
	</g>
	<g id="_Слой_25" data-name=" Слой 25">
		<g class="cls-4">
			<g>
				<ellipse class="cls-9" cx="307.62" cy="159.47" rx="307.62" ry="159.47"/>
				<ellipse class="cls-9" cx="852.65" cy="189.95" rx="307.62" ry="158.7"/>
			</g>
		</g>
		<path class="cls-9" d="m630.89,296.38h4.83c3.54,0,6.42,2.98,6.42,6.65v52.58c0,3.67-2.87,6.65-6.42,6.65h-4.83c-3.54,0-6.42-2.98-6.42-6.65v-52.58c0-3.67,2.87-6.65,6.42-6.65Z"/>
		<path class="cls-9" d="m424.38,297.97h4.83c3.54,0,6.42,2.98,6.42,6.65v52.58c0,3.67-2.87,6.65-6.42,6.65h-4.83c-3.54,0-6.42-2.98-6.42-6.65v-52.58c0-3.67,2.87-6.65,6.42-6.65Z"/>
	</g>
	<g id="_Слой_24" data-name=" Слой 24">
		<path class="cls-2" d="m524.47,366.6l-9.58,12.77c-3.62,4.81-.3,11.83,5.58,11.83h19.17c5.89,0,9.19-7.02,5.58-11.83l-9.58-12.77c-2.83-3.77-8.33-3.77-11.17,0h.01Z"/>
		<path class="cls-6" d="m583.89,314.67h3.92c2.84,0,5.14,2.39,5.14,5.33v36.94c0,2.95-2.3,5.33-5.14,5.33h-3.92c-2.84,0-5.14-2.39-5.14-5.33v-36.94c0-2.95,2.3-5.33,5.14-5.33Z"/>
		<path class="cls-6" d="m474.96,314.67h3.92c2.84,0,5.14,2.39,5.14,5.33v36.94c0,2.95-2.3,5.33-5.14,5.33h-3.92c-2.84,0-5.14-2.39-5.14-5.33v-36.94c0-2.95,2.3-5.33,5.14-5.33Z"/>
		<path class="cls-6" d="m499.59,306.33c0-2.59-10.14-11.15-22.66-11.15s-22.66,8.56-22.66,11.15c0,6.08,10.14-1.96,22.66-1.96s22.66,8.04,22.66,1.96Z"/>
		<path class="cls-6" d="m608.51,306.33c0-2.59-10.14-11.15-22.66-11.15s-22.66,8.56-22.66,11.15c0,6.08,10.14-1.96,22.66-1.96s22.66,8.04,22.66,1.96Z"/>
		<path class="cls-6" d="m567.88,410c0,5.12-16.94,22.01-37.84,22.01s-37.84-16.9-37.84-22.01c0-12.02,16.94,9.35,37.84,9.35s37.84-21.37,37.84-9.35Z"/>
	</g>
</svg>