<?xml version="1.0" encoding="UTF-8"?>
<svg xmlns="http://www.w3.org/2000/svg" xmlns:xlink="http://www.w3.org/1999/xlink" viewBox="0 0 1295.96 634.93">
  <defs>
    <style>
      .cls-1 {
        fill: #d8d8d8;
      }

      .cls-2 {
        fill: #df5958;
      }

      .cls-3 {
        fill: #7fe2c6;
      }

      .cls-4 {
        clip-path: url(#clippath-1);
      }

      .cls-5 {
        fill: #9eefd4;
      }

      .cls-6 {
        fill: #7e4017;
      }

      .cls-7 {
        clip-path: url(#clippath);
      }

      .cls-8 {
        fill: none;
      }

      .cls-9 {
        fill: #bcbcbc;
      }

      .cls-10 {
        fill: #f4bc84;
      }
    </style>
    <clipPath id="clippath">
      <ellipse class="cls-8" cx="612.19" cy="315.05" rx="224.06" ry="216.11"/>
    </clipPath>
    <clipPath id="clippath-1">
      <ellipse class="cls-8" cx="613.72" cy="260.48" rx="107.73" ry="107.12"/>
    </clipPath>
  </defs>
  <g id="_1" data-name="1">
    <ellipse class="cls-3" cx="612.19" cy="315.05" rx="224.06" ry="216.11"/>
  </g>
  <g id="_6" data-name="6">
    <g>
      <ellipse class="cls-1" cx="614.92" cy="384.17" rx="69.12" ry="44.9"/>
      <path class="cls-1" d="m690.43,385.97h0c-4.37,0-7.91-3.54-7.91-7.91l15.83-77.55c0-4.37,3.54-7.91,7.91-7.91h0c4.37,0,7.91,3.54,7.91,7.91l-3.16,37.03c0,4.37-16.21,48.44-20.58,48.44Z"/>
      <path class="cls-1" d="m537.89,385.97h0c4.37,0,9.64-1.25,9.64-5.62l-17.56-79.84c0-4.37-3.54-7.91-7.91-7.91h0c-4.37,0-7.91,3.54-7.91,7.91l1.99,39.89c0,4.37,17.38,45.58,21.75,45.58Z"/>
    </g>
  </g>
  <g id="_Слой_22" data-name="Слой 22">
    <g class="cls-7">
      <ellipse class="cls-5" cx="612.19" cy="315.05" rx="224.06" ry="216.11"/>
      <rect class="cls-2" x="462.68" y="420.88" width="304.56" height="110.27" rx="55.13" ry="55.13"/>
      <path class="cls-2" d="m685.9,458.09l-144.5-.53c-13.27-.05-21.96-13.92-16.2-25.88l15.21-31.62c3.01-6.25,9.33-10.23,16.27-10.23h115.12c7.15,0,13.63,4.23,16.52,10.77l14.17,32.14c5.27,11.96-3.52,25.38-16.59,25.34Z"/>
    </g>
  </g>
  <g id="_Слой_28" data-name="Слой 28">
    <circle class="cls-9" cx="659.73" cy="174.9" r="54.44"/>
  </g>
  <g id="_Слой_20" data-name="Слой 20">
    <ellipse class="cls-10" cx="613.72" cy="282.15" rx="107.73" ry="128.78"/>
  </g>
  <g id="_Слой_26" data-name="Слой 26">
    <rect class="cls-9" x="698.35" y="255.16" width="23.02" height="58"/>
    <rect class="cls-9" x="505.99" y="257.05" width="23.02" height="58"/>
  </g>
  <g id="_Слой_27" data-name="Слой 27">
    <ellipse class="cls-10" cx="513.27" cy="302.25" rx="30.17" ry="35.47"/>
    <ellipse class="cls-10" cx="714.17" cy="302.25" rx="30.17" ry="35.47"/>
  </g>
  <g id="_Слой_25" data-name="Слой 25">
    <g class="cls-4">
      <g>
        <ellipse class="cls-9" cx="414.37" cy="137.85" rx="275.7" ry="137.85"/>
        <ellipse class="cls-9" cx="902.85" cy="164.2" rx="275.7" ry="137.19"/>
      </g>
    </g>
    <rect class="cls-9" x="698.35" y="256.2" width="15.83" height="56.95" rx="5.75" ry="5.75"/>
    <rect class="cls-9" x="513.27" y="257.58" width="15.83" height="56.95" rx="5.75" ry="5.75"/>
  </g>
  <g id="_Слой_24" data-name="Слой 24">
    <path class="cls-2" d="m608.72,316.9l-8.59,11.04c-3.24,4.16-.27,10.23,5,10.23h17.18c5.28,0,8.24-6.07,5-10.23l-8.59-11.04c-2.54-3.26-7.47-3.26-10.01,0Z"/>
    <rect class="cls-6" x="657.37" y="272.01" width="12.73" height="41.15" rx="4.61" ry="4.61"/>
    <rect class="cls-6" x="559.74" y="272.01" width="12.73" height="41.15" rx="4.61" ry="4.61"/>
    <path class="cls-6" d="m586.42,264.8c0-2.24-9.09-9.64-20.31-9.64s-20.31,7.4-20.31,9.64c0,5.26,9.09-1.69,20.31-1.69s20.31,6.95,20.31,1.69Z"/>
    <path class="cls-6" d="m684.04,264.8c0-2.24-9.09-9.64-20.31-9.64s-20.31,7.4-20.31,9.64c0,5.26,9.09-1.69,20.31-1.69s20.31,6.95,20.31,1.69Z"/>
    <path class="cls-6" d="m647.63,354.42c0,4.43-15.18,19.03-33.91,19.03s-33.91-14.61-33.91-19.03c0-10.39,15.18,8.08,33.91,8.08s33.91-18.47,33.91-8.08Z"/>
  </g>
</svg>