<?xml version="1.0" encoding="UTF-8"?>
<svg xmlns="http://www.w3.org/2000/svg" xmlns:xlink="http://www.w3.org/1999/xlink" viewBox="0 0 1295.96 634.93">
  <defs>
    <style>
      .cls-1 {
        fill: #fff;
      }

      .cls-2 {
        clip-path: url(#clippath-2);
      }

      .cls-3 {
        fill: #df5958;
      }

      .cls-4 {
        fill: #7e4017;
      }

      .cls-5 {
        clip-path: url(#clippath);
      }

      .cls-6 {
        fill: none;
      }

      .cls-7 {
        fill: #5dd4f8;
      }

      .cls-8 {
        fill: #f4bc84;
      }
    </style>
    <clipPath id="clippath">
      <ellipse class="cls-6" cx="612.19" cy="315.05" rx="224.06" ry="216.11"/>
    </clipPath>
    <clipPath id="clippath-2">
      <ellipse class="cls-6" cx="612.19" cy="502.06" rx="155.25" ry="132.87"/>
    </clipPath>
  </defs>
  <g id="_1" data-name="1">
    <ellipse class="cls-3" cx="612.19" cy="315.05" rx="224.06" ry="216.11"/>
  </g>
  <g id="_1-2" data-name="1">
    <g class="cls-5">
      <ellipse class="cls-7" cx="612.19" cy="502.06" rx="155.25" ry="132.87"/>
    </g>
  </g>
  <g id="_1-3" data-name="1">
    <g class="cls-2">
      <path class="cls-1" d="m645.88,504.96h-64.27c-10.18,0-17.67-9.53-15.26-19.42l17.13-70.3c1.72-7.07,8.08-12.03,15.35-11.99l30.26.18c7.22.04,13.48,5.01,15.17,12.03l16.89,70.12c2.38,9.88-5.11,19.38-15.27,19.38Z"/>
      <path class="cls-1" d="m604.81,437.44l-61.42-46.25c-11.36-8.56-5.31-26.65,8.91-26.65h122.84c14.22,0,20.27,18.09,8.91,26.65l-61.42,46.25c-5.28,3.97-12.55,3.97-17.82,0Z"/>
    </g>
  </g>
  <g id="_1-4" data-name="1">
    <path class="cls-4" d="m605.36,188.37c-5.01-9.47-6.17-18.78-4.97-28.73,2.45-20.42,29.7-24.89,43.72-17.95,7.17,3.55,14.9,12.62,12.95,17.89-1.31,3.54-5.64,4.77-9.15,3.22-3.86-1.71-4.1-7.02-12-9.66s-21.65-1.62-22.27,7.61c-.66,9.82,7.93,26.6,2.66,31.9-2.41,2.42-9.45-1.46-10.94-4.28Z"/>
  </g>
  <g id="_1-5" data-name="1">
    <ellipse class="cls-8" cx="613.72" cy="286.68" rx="107.73" ry="114.09"/>
    <ellipse class="cls-8" cx="505.99" cy="297.91" rx="37.29" ry="39.5" transform="translate(-58.54 136.42) rotate(-14.52)"/>
    <ellipse class="cls-8" cx="721.46" cy="297.91" rx="39.5" ry="37.29" transform="translate(252.13 921.6) rotate(-75.48)"/>
  </g>
  <g id="_1-6" data-name="1">
    <path class="cls-3" d="m608.72,316.9l-8.59,11.04c-3.24,4.16-.27,10.23,5,10.23h17.18c5.28,0,8.24-6.07,5-10.23l-8.59-11.04c-2.54-3.26-7.47-3.26-10.01,0Z"/>
    <rect class="cls-4" x="657.37" y="272.01" width="12.73" height="41.15" rx="4.61" ry="4.61"/>
    <rect class="cls-4" x="559.74" y="272.01" width="12.73" height="41.15" rx="4.61" ry="4.61"/>
    <path class="cls-4" d="m655.21,348.56c0,4.43-18.04,19.03-40.29,19.03s-40.29-14.61-40.29-19.03c0-10.39,18.04,8.08,40.29,8.08s40.29-18.47,40.29-8.08Z"/>
    <path class="cls-4" d="m586.42,264.8c0-2.24-9.09-9.64-20.31-9.64s-20.31,7.4-20.31,9.64c0,5.26,9.09-1.69,20.31-1.69s20.31,6.95,20.31,1.69Z"/>
    <path class="cls-4" d="m684.04,264.8c0-2.24-9.09-9.64-20.31-9.64s-20.31,7.4-20.31,9.64c0,5.26,9.09-1.69,20.31-1.69s20.31,6.95,20.31,1.69Z"/>
  </g>
</svg>