<?xml version="1.0" encoding="UTF-8"?>
<svg id="_Слой_1" data-name="Слой 1" xmlns="http://www.w3.org/2000/svg" xmlns:xlink="http://www.w3.org/1999/xlink" viewBox="0 0 500 620.04">
	<defs>
		<style>
			.cls-1 {
			fill: #fff;
			}

			.cls-2 {
			fill: #df5958;
			}

			.cls-3 {
			clip-path: url(#clippath-1);
			}

			.cls-4 {
			fill: #7e4017;
			}

			.cls-5 {
			clip-path: url(#clippath);
			}

			.cls-6 {
			fill: none;
			}

			.cls-7 {
			fill: #5dd4f8;
			}

			.cls-8 {
			fill: #f4bc84;
			}
		</style>
		<clipPath id="clippath">
			<circle class="cls-6" cx="250" cy="250" r="250"/>
		</clipPath>
		<clipPath id="clippath-1">
			<ellipse class="cls-6" cx="250" cy="464.42" rx="173.22" ry="153.07"/>
		</clipPath>
	</defs>
	<g id="_1" data-name=" 1">
		<circle class="cls-2" cx="250" cy="250" r="250"/>
	</g>
	<g id="_1-2" data-name=" 1-2">
		<g class="cls-5">
			<ellipse class="cls-7" cx="250" cy="466.34" rx="173.22" ry="153.71"/>
		</g>
	</g>
	<g id="_1-3" data-name=" 1-3">
		<g class="cls-3">
			<g>
				<path class="cls-1" d="m287.59,467.76h-71.71c-11.36,0-19.72-10.98-17.03-22.37l19.11-80.99c1.92-8.15,9.02-13.86,17.13-13.81l33.76.21c8.06.05,15.04,5.77,16.93,13.86l18.85,80.78c2.66,11.38-5.7,22.33-17.04,22.33h0Z"/>
				<path class="cls-1" d="m241.77,389.97l-68.53-53.28c-12.68-9.86-5.92-30.7,9.94-30.7h137.06c15.87,0,22.62,20.84,9.94,30.7l-68.53,53.28c-5.89,4.57-14,4.57-19.88,0Z"/>
			</g>
		</g>
	</g>
	<g id="_1-4" data-name=" 1-4">
		<path class="cls-4" d="m242.38,103.03c-5.59-10.91-6.88-21.64-5.55-33.1,2.73-23.53,33.14-28.67,48.78-20.68,8,4.09,16.63,14.54,14.45,20.61-1.46,4.08-6.29,5.5-10.21,3.71-4.31-1.97-4.57-8.09-13.39-11.13-8.81-3.04-24.16-1.87-24.85,8.77-.74,11.31,8.85,30.64,2.97,36.75-2.69,2.79-10.54-1.68-12.21-4.93h0Z"/>
	</g>
	<g id="_1-5" data-name=" 1-5">
		<ellipse class="cls-8" cx="251.71" cy="216.29" rx="120.2" ry="131.44"/>
		<ellipse class="cls-8" cx="131.49" cy="229.28" rx="41.66" ry="45.45" transform="translate(-35.56 24.46) rotate(-9.37)"/>
		<ellipse class="cls-8" cx="371.86" cy="229.18" rx="45.45" ry="41.66" transform="translate(85.21 558.79) rotate(-80.63)"/>
	</g>
	<g id="_1-6" data-name=" 1-6">
		<path class="cls-2" d="m246.13,251.1l-9.58,12.72c-3.62,4.79-.3,11.79,5.58,11.79h19.17c5.89,0,9.19-6.99,5.58-11.79l-9.58-12.72c-2.83-3.76-8.33-3.76-11.17,0h.01Z"/>
		<path class="cls-4" d="m305.55,199.39h3.92c2.84,0,5.14,2.38,5.14,5.31v36.79c0,2.93-2.3,5.31-5.14,5.31h-3.92c-2.84,0-5.14-2.38-5.14-5.31v-36.79c0-2.93,2.3-5.31,5.14-5.31Z"/>
		<path class="cls-4" d="m196.62,199.39h3.92c2.84,0,5.14,2.38,5.14,5.31v36.79c0,2.93-2.3,5.31-5.14,5.31h-3.92c-2.84,0-5.14-2.38-5.14-5.31v-36.79c0-2.93,2.3-5.31,5.14-5.31Z"/>
		<path class="cls-4" d="m298,287.58c0,5.1-20.13,21.92-44.95,21.92s-44.95-16.83-44.95-21.92c0-11.97,20.13,9.31,44.95,9.31s44.95-21.28,44.95-9.31Z"/>
		<path class="cls-4" d="m221.25,191.08c0-2.58-10.14-11.11-22.66-11.11s-22.66,8.53-22.66,11.11c0,6.06,10.14-1.95,22.66-1.95s22.66,8.01,22.66,1.95Z"/>
		<path class="cls-4" d="m330.17,191.08c0-2.58-10.14-11.11-22.66-11.11s-22.66,8.53-22.66,11.11c0,6.06,10.14-1.95,22.66-1.95s22.66,8.01,22.66,1.95Z"/>
	</g>
</svg>