<?xml version="1.0" encoding="UTF-8"?>
<svg id="_Слой_1" data-name="Слой 1" xmlns="http://www.w3.org/2000/svg" xmlns:xlink="http://www.w3.org/1999/xlink" viewBox="0 0 502.85 537.83">
	<defs>
		<style>
			.cls-1 {
			fill: #fff;
			}

			.cls-2 {
			fill: #df5958;
			}

			.cls-3 {
			clip-path: url(#clippath-1);
			}

			.cls-4 {
			fill: #eaae78;
			}

			.cls-5 {
			fill: #7e4017;
			}

			.cls-6 {
			clip-path: url(#clippath);
			}

			.cls-7 {
			fill: none;
			}

			.cls-8 {
			fill: #5dd4f8;
			}

			.cls-9 {
			fill: #f4bc84;
			}
		</style>
		<clipPath id="clippath">
			<circle class="cls-7" cx="250" cy="250" r="250"/>
		</clipPath>
		<clipPath id="clippath-1">
			<ellipse class="cls-7" cx="251.71" cy="186.87" rx="120.2" ry="123.92"/>
		</clipPath>
	</defs>
	<g id="_1" data-name=" 1">
		<circle class="cls-2" cx="250" cy="250" r="250"/>
	</g>
	<g id="_Слой_29" data-name=" Слой 29">
		<path class="cls-1" d="m196.05,353.8h111.31c5.72,0,10.35,4.81,10.35,10.74v60.47c0,5.93-4.64,10.74-10.35,10.74h-111.31c-5.72,0-10.35-4.81-10.35-10.74v-60.47c0-5.93,4.64-10.74,10.35-10.74Z"/>
	</g>
	<g id="_6" data-name=" 6">
		<g class="cls-6">
			<g>
				<path class="cls-1" d="m144.69,372.43h216.79c33.97,0,61.51,28.55,61.51,63.78h0c0,35.23-27.54,63.79-61.51,63.79h-216.79c-33.97,0-61.51-28.55-61.51-63.78h0c0-35.23,27.54-63.79,61.51-63.79Z"/>
				<rect class="cls-8" x="141.75" y="372.43" width="216.52" height="165.4"/>
			</g>
		</g>
	</g>
	<g id="_Слой_19" data-name=" Слой 19">
		<path class="cls-4" d="m253.05,250h0c26.16,0,47.36,21.99,47.36,49.11v76.35c0,27.12-21.2,49.11-47.36,49.11h0c-26.16,0-47.36-21.99-47.36-49.11v-76.35c0-27.12,21.2-49.11,47.36-49.11Z"/>
	</g>
	<g id="_Слой_30" data-name=" Слой 30">
		<path class="cls-1" d="m248.2,446.02l-68.35-39.97c-4.47-2.61-6.47-9.49-4.49-15.34l10.21-30.02c2-5.87,7.23-8.49,11.7-5.88l68.35,39.97c4.47,2.61,6.47,9.49,4.49,15.34l-10.21,30.02c-2,5.87-7.23,8.49-11.7,5.88Z"/>
		<path class="cls-1" d="m255.22,446.02l68.35-39.97c4.47-2.61,6.47-9.49,4.49-15.34l-10.21-30.02c-2-5.87-7.23-8.49-11.7-5.88l-68.35,39.97c-4.47,2.61-6.47,9.49-4.49,15.34l10.21,30.02c2,5.87,7.23,8.49,11.7,5.88Z"/>
	</g>
	<g id="_6-2" data-name=" 6-2">
		<g>
			<ellipse class="cls-9" cx="139.63" cy="235.19" rx="33.66" ry="41.03"/>
			<ellipse class="cls-9" cx="363.79" cy="235.19" rx="33.66" ry="41.03"/>
		</g>
	</g>
	<g id="_Слой_27" data-name=" Слой 27">
		<ellipse class="cls-9" cx="251.71" cy="211.94" rx="120.2" ry="148.98"/>
	</g>
	<g id="_Слой_22" data-name=" Слой 22">
		<g class="cls-3">
			<g>
				<ellipse class="cls-5" cx="162.84" cy="106.23" rx="56.87" ry="74.49"/>
				<ellipse class="cls-5" cx="414.59" cy="139.82" rx="88.26" ry="123.21"/>
				<ellipse class="cls-5" cx="88.27" cy="153.53" rx="88.26" ry="123.21"/>
				<ellipse class="cls-5" cx="284.86" cy="102.88" rx="117.79" ry="74.49"/>
			</g>
		</g>
	</g>
	<g id="_Слой_23" data-name=" Слой 23">
		<path class="cls-2" d="m246.13,252.14l-9.58,12.77c-3.62,4.81-.3,11.83,5.58,11.83h19.17c5.89,0,9.19-7.02,5.58-11.83l-9.58-12.77c-2.83-3.77-8.33-3.77-11.17,0h.01Z"/>
		<path class="cls-5" d="m305.55,200.21h3.92c2.84,0,5.14,2.39,5.14,5.33v36.94c0,2.95-2.3,5.33-5.14,5.33h-3.92c-2.84,0-5.14-2.39-5.14-5.33v-36.94c0-2.95,2.3-5.33,5.14-5.33Z"/>
		<path class="cls-5" d="m196.62,200.21h3.92c2.84,0,5.14,2.39,5.14,5.33v36.94c0,2.95-2.3,5.33-5.14,5.33h-3.92c-2.84,0-5.14-2.39-5.14-5.33v-36.94c0-2.95,2.3-5.33,5.14-5.33Z"/>
		<path class="cls-5" d="m221.25,191.87c0-2.59-10.14-11.15-22.66-11.15s-22.66,8.56-22.66,11.15c0,6.08,10.14-1.96,22.66-1.96s22.66,8.04,22.66,1.96Z"/>
		<path class="cls-5" d="m330.17,191.87c0-2.59-10.14-11.15-22.66-11.15s-22.66,8.56-22.66,11.15c0,6.08,10.14-1.96,22.66-1.96s22.66,8.04,22.66,1.96Z"/>
	</g>
	<g id="_6-3" data-name=" 6-3">
		<path class="cls-5" d="m289.54,295.54c0,5.12-16.94,22.01-37.84,22.01s-37.84-16.9-37.84-22.01c0-12.02,16.94,9.35,37.84,9.35s37.84-21.37,37.84-9.35Z"/>
	</g>
</svg>