<?xml version="1.0" encoding="UTF-8"?>
<svg xmlns="http://www.w3.org/2000/svg" xmlns:xlink="http://www.w3.org/1999/xlink" viewBox="0 0 1295.96 531.16">
  <defs>
    <style>
      .cls-1 {
        fill: #fff;
      }

      .cls-2 {
        fill: #df5958;
      }

      .cls-3 {
        clip-path: url(#clippath-1);
      }

      .cls-4 {
        fill: #eaae78;
      }

      .cls-5 {
        fill: #7e4017;
      }

      .cls-6 {
        clip-path: url(#clippath);
      }

      .cls-7 {
        fill: none;
      }

      .cls-8 {
        fill: #5dd4f8;
      }

      .cls-9 {
        fill: #f4bc84;
      }
    </style>
    <clipPath id="clippath">
      <ellipse class="cls-7" cx="612.19" cy="315.05" rx="224.06" ry="216.11"/>
    </clipPath>
    <clipPath id="clippath-1">
      <ellipse class="cls-7" cx="613.72" cy="260.48" rx="107.73" ry="107.12"/>
    </clipPath>
  </defs>
  <g id="_1" data-name="1">
    <ellipse class="cls-2" cx="612.19" cy="315.05" rx="224.06" ry="216.11"/>
  </g>
  <g id="_Слой_20" data-name="Слой 20">
    <rect class="cls-1" x="545.8" y="410.91" width="138.24" height="48.02" rx="15.52" ry="15.52"/>
  </g>
  <g id="_6" data-name="6">
    <g class="cls-6">
      <rect class="cls-8" x="462.68" y="420.88" width="304.56" height="110.27" rx="55.13" ry="55.13"/>
    </g>
  </g>
  <g id="_Слой_19" data-name="Слой 19">
    <rect class="cls-4" x="572.48" y="315.05" width="84.89" height="146.8" rx="42.45" ry="42.45"/>
  </g>
  <g id="_Слой_21" data-name="Слой 21">
    <rect class="cls-1" x="523.99" y="440.56" width="123.09" height="50.95" rx="15.52" ry="15.52" transform="translate(501.03 -277.54) rotate(45)"/>
    <rect class="cls-1" x="577.62" y="442.2" width="127.75" height="50.95" rx="15.52" ry="15.52" transform="translate(1425.8 344.77) rotate(135)"/>
  </g>
  <g id="_6-2" data-name="6">
    <g>
      <ellipse class="cls-5" cx="613.72" cy="282.15" rx="107.73" ry="128.78"/>
      <ellipse class="cls-9" cx="513.27" cy="302.25" rx="30.17" ry="35.47"/>
      <ellipse class="cls-9" cx="714.17" cy="302.25" rx="30.17" ry="35.47"/>
    </g>
  </g>
  <g id="_Слой_24" data-name="Слой 24">
    <ellipse class="cls-9" cx="614.92" cy="285.95" rx="92.41" ry="109.76"/>
  </g>
  <g id="_Слой_22" data-name="Слой 22">
    <g class="cls-3">
      <ellipse class="cls-5" cx="613.72" cy="177.31" rx="82.87" ry="64.39"/>
      <ellipse class="cls-5" cx="759.7" cy="219.81" rx="79.1" ry="106.51"/>
      <ellipse class="cls-5" cx="467.24" cy="231.66" rx="79.1" ry="106.51"/>
    </g>
  </g>
  <g id="_Слой_23" data-name="Слой 23">
    <path class="cls-2" d="m608.72,316.9l-8.59,11.04c-3.24,4.16-.27,10.23,5,10.23h17.18c5.28,0,8.24-6.07,5-10.23l-8.59-11.04c-2.54-3.26-7.47-3.26-10.01,0Z"/>
    <rect class="cls-5" x="657.37" y="272.01" width="12.73" height="41.15" rx="4.61" ry="4.61"/>
    <rect class="cls-5" x="559.74" y="272.01" width="12.73" height="41.15" rx="4.61" ry="4.61"/>
    <path class="cls-5" d="m586.42,264.8c0-2.24-9.09-9.64-20.31-9.64s-20.31,7.4-20.31,9.64c0,5.26,9.09-1.69,20.31-1.69s20.31,6.95,20.31,1.69Z"/>
    <path class="cls-5" d="m684.04,264.8c0-2.24-9.09-9.64-20.31-9.64s-20.31,7.4-20.31,9.64c0,5.26,9.09-1.69,20.31-1.69s20.31,6.95,20.31,1.69Z"/>
  </g>
  <g id="_6-3" data-name="6">
    <path class="cls-5" d="m647.63,354.42c0,4.43-15.18,19.03-33.91,19.03s-33.91-14.61-33.91-19.03c0-10.39,15.18,8.08,33.91,8.08s33.91-18.47,33.91-8.08Z"/>
  </g>
</svg>