<?xml version="1.0" encoding="UTF-8"?>
<svg xmlns="http://www.w3.org/2000/svg" xmlns:xlink="http://www.w3.org/1999/xlink" viewBox="0 0 1295.96 571.15">
  <defs>
    <style>
      .cls-1 {
        fill: #d8d8d8;
      }

      .cls-2 {
        fill: #df5958;
      }

      .cls-3 {
        fill: #7e4017;
      }

      .cls-4 {
        clip-path: url(#clippath);
      }

      .cls-5 {
        fill: none;
      }

      .cls-6 {
        fill: #5dd4f8;
      }

      .cls-7 {
        fill: #f4bc84;
      }
    </style>
    <clipPath id="clippath">
      <ellipse class="cls-5" cx="612.19" cy="251.27" rx="224.06" ry="216.11"/>
    </clipPath>
  </defs>
  <g id="_Слой_5" data-name="Слой 5">
    <ellipse class="cls-2" cx="612.19" cy="251.27" rx="224.06" ry="216.11"/>
  </g>
  <g id="_Слой_17" data-name="Слой 17">
    <g class="cls-4">
      <rect class="cls-6" x="462.68" y="357.09" width="304.56" height="110.27" rx="55.13" ry="55.13"/>
      <path class="cls-6" d="m686.37,377.92l-144.5-.53c-13.27-.05-21.96-13.92-16.2-25.88l15.21-31.62c3.01-6.25,9.33-10.23,16.27-10.23h115.12c7.15,0,13.63,4.23,16.52,10.77l14.17,32.14c5.27,11.96-3.52,25.38-16.59,25.34Z"/>
    </g>
  </g>
  <g id="_Слой_21" data-name="Слой 21">
    <ellipse class="cls-1" cx="613.72" cy="274.85" rx="100.45" ry="90.44"/>
  </g>
  <g id="_Слой_16" data-name="Слой 16">
    <g>
      <ellipse class="cls-7" cx="613.72" cy="196.7" rx="107.73" ry="107.12"/>
      <ellipse class="cls-7" cx="613.72" cy="218.36" rx="107.73" ry="128.78"/>
      <ellipse class="cls-7" cx="513.27" cy="238.46" rx="30.17" ry="35.47"/>
      <ellipse class="cls-7" cx="714.17" cy="238.46" rx="30.17" ry="35.47"/>
      <path class="cls-2" d="m608.72,253.12l-8.59,11.04c-3.24,4.16-.27,10.23,5,10.23h17.18c5.28,0,8.24-6.07,5-10.23l-8.59-11.04c-2.54-3.26-7.47-3.26-10.01,0Z"/>
      <rect class="cls-3" x="657.37" y="208.23" width="12.73" height="41.15" rx="4.61" ry="4.61"/>
      <rect class="cls-3" x="559.74" y="208.23" width="12.73" height="41.15" rx="4.61" ry="4.61"/>
      <path class="cls-3" d="m586.42,201.02c0-2.24-9.09-9.64-20.31-9.64s-20.31,7.4-20.31,9.64c0,5.26,9.09-1.69,20.31-1.69s20.31,6.95,20.31,1.69Z"/>
      <path class="cls-3" d="m684.04,201.02c0-2.24-9.09-9.64-20.31-9.64s-20.31,7.4-20.31,9.64c0,5.26,9.09-1.69,20.31-1.69s20.31,6.95,20.31,1.69Z"/>
    </g>
  </g>
  <g id="_Слой_19" data-name="Слой 19">
    <g>
      <ellipse class="cls-1" cx="614.92" cy="320.39" rx="69.12" ry="44.9"/>
      <path class="cls-1" d="m690.43,322.18h0c-4.37,0-7.91-3.54-7.91-7.91l15.83-77.55c0-4.37,3.54-7.91,7.91-7.91h0c4.37,0,7.91,3.54,7.91,7.91l-3.16,37.03c0,4.37-16.21,48.44-20.58,48.44Z"/>
      <path class="cls-1" d="m537.89,322.18h0c4.37,0,9.64-1.25,9.64-5.62l-17.56-79.84c0-4.37-3.54-7.91-7.91-7.91h0c-4.37,0-7.91,3.54-7.91,7.91l1.99,39.89c0,4.37,17.38,45.58,21.75,45.58Z"/>
    </g>
  </g>
  <g id="_Слой_20" data-name="Слой 20">
    <path class="cls-3" d="m647.63,290.63c0,4.43-15.18,19.03-33.91,19.03s-33.91-14.61-33.91-19.03c0-10.39,15.18,8.08,33.91,8.08s33.91-18.47,33.91-8.08Z"/>
  </g>
</svg>