<?xml version="1.0" encoding="UTF-8"?>
<svg id="_Слой_1" data-name="Слой 1" xmlns="http://www.w3.org/2000/svg" xmlns:xlink="http://www.w3.org/1999/xlink" viewBox="0 0 500 500">
	<defs>
		<style>
			.cls-1 {
			fill: #d8d8d8;
			}

			.cls-2 {
			fill: #df5958;
			}

			.cls-3 {
			fill: #7e4017;
			}

			.cls-4 {
			clip-path: url(#clippath);
			}

			.cls-5 {
			fill: none;
			}

			.cls-6 {
			fill: #5dd4f8;
			}

			.cls-7 {
			fill: #f4bc84;
			}
		</style>
		<clipPath id="clippath">
			<circle class="cls-5" cx="250" cy="250" r="250"/>
		</clipPath>
	</defs>
	<g id="_Слой_5" data-name=" Слой 5">
		<circle class="cls-2" cx="250" cy="250" r="250"/>
	</g>
	<g id="_Слой_17" data-name=" Слой 17">
		<g class="cls-4">
			<g>
				<path class="cls-6" d="m144.69,372.41h216.79c33.97,0,61.51,28.55,61.51,63.78h0c0,35.23-27.54,63.79-61.51,63.79h-216.79c-33.97,0-61.51-28.55-61.51-63.78h0c0-35.23,27.54-63.79,61.51-63.79Z"/>
				<path class="cls-6" d="m332.77,396.51l-161.23-.61c-14.81-.06-24.5-16.1-18.08-29.94l16.97-36.58c3.36-7.23,10.41-11.83,18.15-11.83h128.45c7.98,0,15.21,4.89,18.43,12.46l15.81,37.18c5.88,13.84-3.93,29.36-18.51,29.31h0Z"/>
			</g>
		</g>
	</g>
	<g id="_Слой_21" data-name=" Слой 21">
		<ellipse class="cls-1" cx="251.71" cy="277.28" rx="112.08" ry="104.62"/>
	</g>
	<g id="_Слой_16" data-name=" Слой 16">
		<g>
			<ellipse class="cls-7" cx="251.71" cy="186.87" rx="120.2" ry="123.92"/>
			<ellipse class="cls-7" cx="251.71" cy="211.93" rx="120.2" ry="148.98"/>
			<ellipse class="cls-7" cx="139.63" cy="235.18" rx="33.66" ry="41.03"/>
			<ellipse class="cls-7" cx="363.79" cy="235.18" rx="33.66" ry="41.03"/>
			<path class="cls-2" d="m246.13,252.14l-9.58,12.77c-3.62,4.81-.3,11.83,5.58,11.83h19.17c5.89,0,9.19-7.02,5.58-11.83l-9.58-12.77c-2.83-3.77-8.33-3.77-11.17,0h.01Z"/>
			<path class="cls-3" d="m305.55,200.21h3.92c2.84,0,5.14,2.39,5.14,5.33v36.94c0,2.95-2.3,5.33-5.14,5.33h-3.92c-2.84,0-5.14-2.39-5.14-5.33v-36.94c0-2.95,2.3-5.33,5.14-5.33Z"/>
			<path class="cls-3" d="m196.62,200.21h3.92c2.84,0,5.14,2.39,5.14,5.33v36.94c0,2.95-2.3,5.33-5.14,5.33h-3.92c-2.84,0-5.14-2.39-5.14-5.33v-36.94c0-2.95,2.3-5.33,5.14-5.33Z"/>
			<path class="cls-3" d="m221.25,191.87c0-2.59-10.14-11.15-22.66-11.15s-22.66,8.56-22.66,11.15c0,6.08,10.14-1.96,22.66-1.96s22.66,8.04,22.66,1.96Z"/>
			<path class="cls-3" d="m330.17,191.87c0-2.59-10.14-11.15-22.66-11.15s-22.66,8.56-22.66,11.15c0,6.08,10.14-1.96,22.66-1.96s22.66,8.04,22.66,1.96Z"/>
		</g>
	</g>
	<g id="_Слой_19" data-name=" Слой 19">
		<g>
			<ellipse class="cls-1" cx="253.05" cy="329.96" rx="77.12" ry="51.94"/>
			<path class="cls-1" d="m337.3,332.03h0c-4.88,0-8.83-4.1-8.83-9.15l17.66-89.71c0-5.06,3.95-9.15,8.83-9.15h0c4.88,0,8.83,4.1,8.83,9.15l-3.53,42.84c0,5.06-18.09,56.04-22.96,56.04h0Z"/>
			<path class="cls-1" d="m167.1,332.03h0c4.88,0,10.76-1.45,10.76-6.5l-19.59-92.36c0-5.06-3.95-9.15-8.83-9.15h0c-4.88,0-8.83,4.1-8.83,9.15l2.22,46.15c0,5.06,19.39,52.73,24.27,52.73h0Z"/>
		</g>
	</g>
	<g id="_Слой_20" data-name=" Слой 20">
		<path class="cls-3" d="m289.54,295.53c0,5.12-16.94,22.01-37.84,22.01s-37.84-16.9-37.84-22.01c0-12.02,16.94,9.35,37.84,9.35s37.84-21.37,37.84-9.35Z"/>
	</g>
</svg>